HIERARCHY
ROOT SpineBase
{
  OFFSET 0.000000 0.000000 0.000000
  CHANNELS 6 Xposition Yposition Zposition Zrotation Xrotation Yrotation
  JOINT SpineMid
  {
    OFFSET 0.000000 27.757222 0.000000
    CHANNELS 3 Zrotation Xrotation Yrotation
    JOINT SpineShoulder
    {
      OFFSET -0.002588 20.638316 -0.678547
      CHANNELS 3 Zrotation Xrotation Yrotation
      JOINT Neck
      {
        OFFSET -0.013438 6.826614 -0.513045
        CHANNELS 3 Zrotation Xrotation Yrotation
        JOINT Head
        {
          OFFSET -3.085878 12.882123 -0.110207
          CHANNELS 3 Zrotation Xrotation Yrotation
          End Site
          {
            OFFSET 0 0 0
          }
        }
      }
      JOINT ShoulderLeft
      {
        OFFSET -13.751278 -4.519009 5.662161
        CHANNELS 3 Zrotation Xrotation Yrotation
        JOINT ElbowLeft
        {
          OFFSET -1.466826 -19.538710 2.980257
          CHANNELS 3 Zrotation Xrotation Yrotation
          JOINT WristLeft
          {
            OFFSET -2.982163 6.505654 -14.623139
            CHANNELS 3 Zrotation Xrotation Yrotation
            JOINT HandLeft
            {
              OFFSET 3.558691 4.850776 1.338400
              CHANNELS 3 Zrotation Xrotation Yrotation
              JOINT HandTipLeft
              {
                OFFSET 0.028664 2.643177 -0.969763
                CHANNELS 3 Zrotation Xrotation Yrotation
                End Site
                {
                  OFFSET 0 0 0
                }
              }
              JOINT ThumbLeft
              {
                OFFSET -0.311342 3.853234 0.429489
                CHANNELS 3 Zrotation Xrotation Yrotation
                End Site
                {
                  OFFSET 0 0 0
                }
              }
            }
          }
        }
      }
      JOINT ShoulderRight
      {
        OFFSET 11.725571 -3.871700 -10.856273
        CHANNELS 3 Zrotation Xrotation Yrotation
        JOINT ElbowRight
        {
          OFFSET 4.885275 -19.505437 -2.134066
          CHANNELS 3 Zrotation Xrotation Yrotation
          JOINT WristRight
          {
            OFFSET -0.154291 -19.854051 -3.964702
            CHANNELS 3 Zrotation Xrotation Yrotation
            JOINT HandRight
            {
              OFFSET -1.054627 -7.796486 -0.916224
              CHANNELS 3 Zrotation Xrotation Yrotation
              JOINT HandTipRight
              {
                OFFSET 0.200069 -6.282944 -1.295792
                CHANNELS 3 Zrotation Xrotation Yrotation
                End Site
                {
                  OFFSET 0 0 0
                }
              }
              JOINT ThumbRight
              {
                OFFSET -3.126786 1.753569 0.028318
                CHANNELS 3 Zrotation Xrotation Yrotation
                End Site
                {
                  OFFSET 0 0 0
                }
              }
            }
          }
        }
      }
    }
  }
  JOINT HipLeft
  {
    OFFSET -5.347387 0.057461 -0.061121
    CHANNELS 3 Zrotation Xrotation Yrotation
    JOINT KneeLeft
    {
      OFFSET 6.722114 -28.479983 5.762130
      CHANNELS 3 Zrotation Xrotation Yrotation
      JOINT AnkleLeft
      {
        OFFSET 6.419905 -32.599533 9.206799
        CHANNELS 3 Zrotation Xrotation Yrotation
        JOINT FootLeft
        {
          OFFSET -2.141321 -6.426044 -6.498637
          CHANNELS 3 Zrotation Xrotation Yrotation
          End Site
          {
            OFFSET 0 0 0
          }
        }
      }
    }
  }
  JOINT HipRight
  {
    OFFSET 4.972273 1.254804 -6.263555
    CHANNELS 3 Zrotation Xrotation Yrotation
    JOINT KneeRight
    {
      OFFSET 8.855062 -25.961664 1.163743
      CHANNELS 3 Zrotation Xrotation Yrotation
      JOINT AnkleRight
      {
        OFFSET 6.441351 -36.397238 10.703933
        CHANNELS 3 Zrotation Xrotation Yrotation
        JOINT FootRight
        {
          OFFSET -3.258083 -4.272453 -7.411219
          CHANNELS 3 Zrotation Xrotation Yrotation
          End Site
          {
            OFFSET 0 0 0
          }
        }
      }
    }
  }
}
MOTION
Frames: 6
Frame Time: 0.033333
20.822699 68.755226 352.728012 -0.000000 0.000000 31.007165 0.000000 0.000000 -31.007165 -0.000000 0.000000 0.000000 -0.000000 0.000000 0.000000 0.000000 0.000000 0.000000 -0.000000 0.000000 0.000000 -0.000000 0.000000 0.000000 -0.000000 0.000000 0.000000 -0.000000 0.000000 0.000000 0.000000 0.000000 0.000000 0.000000 0.000000 0.000000 -0.000000 0.000000 0.000000 -0.000000 0.000000 0.000000 -0.000000 0.000000 0.000000 -0.000000 0.000000 0.000000 0.000000 0.000000 0.000000 0.000000 0.000000 0.000000 0.000000 0.000000 -31.007165 -0.000000 0.000000 0.000000 -0.000000 0.000000 0.000000 0.000000 0.000000 0.000000 0.000000 0.000000 -31.007165 -0.000000 0.000000 0.000000 -0.000000 0.000000 0.000000 0.000000 0.000000 0.000000
20.829096 68.763972 352.725869 0.018349 0.009561 30.977998 -0.020653 0.001247 -30.978000 -0.000000 0.000000 0.000000 -0.000000 0.000000 0.000000 0.000000 0.000000 0.000000 -0.000000 0.000000 0.000000 0.386168 -1.473180 0.191805 -0.381361 1.474431 -0.181932 -0.000000 0.000000 0.000000 0.000000 0.000000 0.000000 0.000000 0.000000 0.000000 -0.000000 0.000000 0.000000 -0.000000 0.000000 0.000000 -0.000000 0.000000 0.000000 1.164527 0.394710 -0.231383 0.000000 0.000000 0.000000 0.000000 0.000000 0.000000 -0.020653 0.001247 -30.978000 -0.000000 0.000000 0.000000 0.292375 2.955555 -1.256540 0.000000 0.000000 0.000000 -0.020653 0.001247 -30.978000 -0.000000 0.000000 0.000000 -2.281866 4.857693 0.320521 0.000000 0.000000 0.000000
20.832621 68.768665 352.726515 0.031049 0.014312 30.954626 -0.033988 0.003697 -30.954629 -0.000000 0.000000 0.000000 -0.000000 0.000000 0.000000 0.000000 0.000000 0.000000 -0.000000 0.000000 0.000000 0.717004 -2.739981 0.352619 -0.700938 2.744132 -0.318682 -0.000000 0.000000 0.000000 0.000000 0.000000 0.000000 0.000000 0.000000 0.000000 -0.000000 0.000000 0.000000 -0.000000 0.000000 0.000000 0.217067 -0.891232 0.096851 1.953971 1.473294 -0.566058 0.000000 0.000000 0.000000 0.000000 0.000000 0.000000 -0.033988 0.003697 -30.954629 -0.000000 0.000000 0.000000 0.995869 5.009040 -2.612443 0.000000 0.000000 0.000000 -0.033988 0.003697 -30.954629 0.897687 0.124911 0.284826 -4.564193 7.672861 0.355467 0.000000 0.000000 0.000000
20.833276 68.769304 352.729948 0.038093 0.014249 30.937124 -0.039999 0.007361 -30.937126 -0.000000 0.000000 0.000000 -0.000000 0.000000 0.000000 0.000000 0.000000 0.000000 -0.000000 0.000000 0.000000 0.988033 -3.792105 0.477300 -0.958540 3.799657 -0.412795 -0.618701 1.673900 -0.237373 0.000000 0.000000 0.000000 0.000000 0.000000 0.000000 -0.000000 0.000000 0.000000 -0.000000 0.000000 0.000000 0.164633 -1.094929 0.130513 2.847063 1.661713 -0.800618 0.000000 0.000000 0.000000 0.000000 0.000000 0.000000 -0.039999 0.007361 -30.937126 -0.000000 0.000000 0.000000 2.097554 6.081066 -4.065797 0.000000 0.000000 0.000000 -0.039999 0.007361 -30.937126 1.244996 0.222363 0.402541 -5.654981 9.066683 0.482226 0.000000 0.000000 0.000000
20.831059 68.765889 352.736169 0.039477 0.009372 30.925553 -0.038681 0.012248 -30.925552 -0.000000 0.000000 0.000000 -0.000000 0.000000 0.000000 0.000000 0.000000 0.000000 -0.000000 0.000000 0.000000 1.195535 -4.623411 0.561494 -1.153991 4.633933 -0.466537 -0.679396 3.389971 -0.268838 0.000000 0.000000 0.000000 0.000000 0.000000 0.000000 -0.000000 0.000000 0.000000 -0.000000 0.000000 0.000000 0.005272 -1.139270 0.153727 3.678769 1.489853 -0.984282 0.000000 0.000000 0.000000 0.000000 0.000000 0.000000 -0.038681 0.012248 -30.925552 -0.000000 0.000000 0.000000 3.571371 6.102991 -5.590964 0.000000 0.000000 0.000000 -0.038681 0.012248 -30.925552 1.519713 0.342463 0.502277 -6.124182 9.230906 0.527356 0.000000 0.000000 0.000000
20.825972 68.758420 352.745178 0.035203 -0.000315 30.919959 -0.030038 0.018358 -30.919955 -0.000000 0.000000 0.000000 -0.000000 0.000000 0.000000 0.000000 0.000000 0.000000 0.435937 0.884577 -0.003285 0.902426 -6.113919 0.619045 -1.287093 5.241883 -0.481794 -0.669602 5.642710 -0.278943 0.000000 0.000000 0.000000 0.000000 0.000000 0.000000 -0.000000 0.000000 0.000000 -0.000000 0.000000 0.000000 -0.261157 -1.024790 0.167106 4.447590 0.961527 -1.107954 0.000000 0.000000 0.000000 0.000000 0.000000 0.000000 -0.030038 0.018358 -30.919955 -0.000000 0.000000 0.000000 5.376783 5.013191 -7.134926 0.000000 0.000000 0.000000 -0.030038 0.018358 -30.919955 1.719242 0.484406 0.583274 -5.994433 8.204822 0.497447 0.000000 0.000000 0.000000
